<?xml version="1.0" encoding="UTF-8" standalone="no"?>
<!-- Created with Inkscape (http://www.inkscape.org/) -->

<svg
   version="1.1"
   id="svg132"
   width="401.92001"
   height="281.28"
   viewBox="0 0 401.92001 281.28"
   sodipodi:docname="ambcat_logo.svg"
   inkscape:version="1.2.2 (732a01da63, 2022-12-09)"
   xmlns:inkscape="http://www.inkscape.org/namespaces/inkscape"
   xmlns:sodipodi="http://sodipodi.sourceforge.net/DTD/sodipodi-0.dtd"
   xmlns="http://www.w3.org/2000/svg"
   xmlns:svg="http://www.w3.org/2000/svg">
  <defs
     id="defs136" />
  <sodipodi:namedview
     id="namedview134"
     pagecolor="#ffffff"
     bordercolor="#000000"
     borderopacity="0.25"
     inkscape:showpageshadow="2"
     inkscape:pageopacity="0.0"
     inkscape:pagecheckerboard="0"
     inkscape:deskcolor="#d1d1d1"
     showgrid="false"
     inkscape:zoom="1.3776308"
     inkscape:cx="151.70973"
     inkscape:cy="169.49388"
     inkscape:window-width="1920"
     inkscape:window-height="991"
     inkscape:window-x="-9"
     inkscape:window-y="-9"
     inkscape:window-maximized="1"
     inkscape:current-layer="g138" />
  <g
     inkscape:groupmode="layer"
     inkscape:label="Image"
     id="g138">
    <path
       style="fill:#9b4a25;stroke:none;stroke-width:0.08;fill-opacity:1"
       d="m 297.36041,152.5222 c -7.428,0.6488 -15.3152,3.2408 -19.8616,9.5576 -1.2208,1.6952 -1.9888,3.5048 -2.4776,5.52 -0.176,0.724 -0.4704,1.56 -0.2752,2.3192 0.2112,0.8216 1.3336,0.7304 1.9744,0.872 2.1288,0.4672 4.3512,0.4312 6.48,0.8568 1.7264,0.3456 3.5296,0.5184 5.28,0.6856 0.6704,0.064 1.4168,0.3744 2.08,0.1496 0.8824,-0.2984 0.8776,-1.1344 1.2392,-1.8432 0.4848,-0.9512 1.2824,-1.9144 2.204,-2.476 3.9288,-2.3912 10.936,-2.54 14.0208,1.3696 0.9856,1.2488 1.312,2.692 1.5104,4.2264 0.1152,0.8944 0.3936,2.792 -0.2856,3.4984 -0.5264,0.5464 -1.6048,0.3416 -2.2888,0.3416 h -5.92 c -8.7504,0 -19.4072,0.2736 -24.8752,8.4 -4.1848,6.22 -4.0968,16.5392 1.2896,22.0664 3.2216,3.3048 7.6352,4.7256 12.0656,5.308 1.8912,0.2488 3.84,0.484 5.76,0.292 3.3272,-0.3328 6.688,-0.9352 9.6,-2.6696 1.1784,-0.7016 2.2016,-1.5544 3.1672,-2.5232 0.2512,-0.2528 0.7832,-1.0968 1.1528,-1.0968 0.4848,0 0.3984,0.9584 0.4,1.2632 0.004,0.9824 -0.4528,3.2104 0.6472,3.7624 1.128,0.5664 2.92,0.2376 4.1528,0.2376 h 6.88 c 1.0896,0 2.3736,0.1864 3.44,-0.0416 0.608,-0.1296 1.0424,-0.5392 1.1624,-1.1584 0.2712,-1.3992 0.0376,-3.0544 0.0376,-4.48 v -18 -13.2 c 0,-2.7232 0.2328,-5.6088 -0.5776,-8.24 -3.2512,-10.552 -14.7296,-14.96 -24.8624,-14.96 -1.0184,0 -2.112,-0.1256 -3.12,-0.0376 m 1.6,34.9408 c 2.4904,-0.2944 5.1712,-0.0232 7.68,-0.0232 0.6376,0 2.1816,-0.2784 2.664,0.2048 0.2952,0.296 0.2816,0.7784 0.292,1.1624 0.024,0.8768 0.004,1.756 0.004,2.6328 0,1.3816 -0.164,2.8136 -0.7408,4.08 -1.5576,3.4192 -5.5776,5.4648 -9.1792,5.8264 -2.4256,0.244 -5.1144,0.0976 -7.2,-1.2992 -3.2104,-2.1496 -3.5776,-7.0624 -0.9104,-9.8008 1.948,-2 4.7568,-2.4728 7.3904,-2.7832 z"
       id="path486" />
    <path
       style="fill:#9b4a25;stroke:none;stroke-width:0.08;fill-opacity:1"
       d="m 239.04041,152.5242 c -6.8256,0.728 -13.5456,3.1976 -18.212,8.4832 -6.0464,6.8488 -7.0392,16.02 -6.6256,24.7528 0.3304,6.976 2.0288,13.7872 6.7416,19.1928 3.372,3.8672 8.0032,6.4728 12.896,7.808 1.6792,0.4584 3.4128,0.508 5.12,0.7848 2.1712,0.3528 4.476,0.148 6.64,-0.1616 1.8304,-0.2616 3.6608,-0.4576 5.44,-1.0104 6.58,-2.0448 12.6432,-6.4696 15.2904,-13.0136 0.5816,-1.4392 0.9728,-2.808 1.3104,-4.32 0.16,-0.7144 0.4792,-1.3824 0.0448,-2.0768 -0.6488,-1.0368 -2.2128,-0.6656 -3.2056,-0.9816 -0.7256,-0.2304 -1.4936,-0.2 -2.24,-0.3248 -2.188,-0.3648 -4.3848,-0.6496 -6.56,-1.0808 -0.8824,-0.1752 -2.6296,-0.6416 -3.436,-0.1464 -0.6984,0.4288 -0.6176,1.68 -0.8584,2.3704 -0.48,1.376 -1.2656,2.6184 -2.2728,3.6792 -3.0704,3.2328 -8.5384,4.0176 -12.4728,1.98 -1.7672,-0.9152 -3.1272,-2.4264 -4.096,-4.1392 -1.4408,-2.5472 -1.564,-5.4952 -1.8376,-8.32 -0.1168,-1.208 -0.1464,-2.3824 -0.1464,-3.6 0,-5.6048 0.9536,-13.1896 7.2,-15.1984 0.7744,-0.2496 1.4992,-0.4656 2.32,-0.548 1.4824,-0.1488 2.8416,-0.0592 4.32,0.2208 2.6272,0.4992 5.3336,2.512 6.5504,4.8856 0.4128,0.8056 0.6904,1.748 0.8528,2.64 0.1472,0.8112 0.2416,1.8184 1.2368,2.0552 0.8208,0.1944 1.604,-0.2496 2.4,-0.292 2.8544,-0.1528 5.7288,-0.8592 8.56,-1.2496 0.84,-0.1152 1.6496,-0.2216 2.48,-0.3928 0.384,-0.0784 0.7608,-0.0288 1.0848,-0.2912 0.7264,-0.5888 0.456,-1.9656 0.3592,-2.7896 -0.3272,-2.792 -1.86,-5.5928 -3.3392,-7.92 -4.648,-7.3128 -14.0168,-10.96 -22.3448,-10.96 -1.0368,0 -2.1768,-0.1448 -3.2,-0.036"
       id="path484" />
    <path
       style="fill:#9b4a25;stroke:none;stroke-width:0.08;fill-opacity:1"
       d="m 339.44001,138.0344 c -1.8976,0.272 -1.6,2.34 -1.6,3.8056 v 8.56 c 0,0.8096 0.3312,2.4288 -0.3288,3.0176 -0.4464,0.3992 -1.1984,0.2624 -1.7512,0.2624 -1.6112,0 -3.6336,-0.3304 -5.2,0.0424 -0.6256,0.1496 -0.9736,0.6288 -1.0896,1.2376 -0.1688,0.8792 -0.0304,1.9048 -0.0304,2.8 v 5.68 c 0,0.7696 -0.2536,2.336 0.4224,2.8952 0.6136,0.5064 1.396,0.4648 2.1376,0.4648 h 3.76 c 0.752,0 1.9128,-0.2136 2.0864,0.8 0.1528,0.896 -0.006,1.9672 -0.006,2.88 v 6.16 19.2 c 0,4.8344 0.2472,10.64 4.4008,13.9064 3.5104,2.76 8.2808,3.168 12.5592,3.4608 1.6352,0.112 3.248,-0.005 4.88,-0.007 1.4504,-0.002 3.0632,0.1136 4.48,-0.212 1.4736,-0.3384 1.36,-1.5904 1.36,-2.828 v -7.04 c 0,-1.1408 0.212,-2.4224 -0.4208,-3.4312 -0.564,-0.8992 -2.5288,-0.5688 -3.4192,-0.5688 -2.3144,0 -4.848,-0.048 -6.4728,-1.9544 -1.8976,-2.2256 -1.4472,-5.5792 -1.4472,-8.2856 v -14.32 c 0,-2.2344 -0.3312,-4.7552 0.012,-6.96 0.1896,-1.2224 2.396,-0.8 3.268,-0.8 h 6.96 c 1.2696,0 2.4168,-0.0776 2.7664,-1.52 0.2112,-0.872 0.0336,-1.984 0.0336,-2.88 v -6.08 c 0,-0.9232 -0.0344,-2.244 -1.12,-2.5648 -0.8408,-0.248 -1.928,-0.0752 -2.8,-0.0752 h -5.76 c -0.9024,0 -2.5224,0.328 -3.1744,-0.4232 -0.2576,-0.2968 -0.1856,-0.732 -0.1856,-1.0968 v -2.56 -7.04 c 0,-0.988 0.2384,-2.3368 -0.068,-3.28 -0.5104,-1.572 -2.1192,-1.28 -3.452,-1.28 h -7.12 c -1.1992,0 -2.4928,-0.136 -3.68,0.0344"
       id="path482" />
    <path
       style="fill:#9b4a25;stroke:none;stroke-width:0.08;fill-opacity:1"
       d="m 249.20001,84.5304 c -3.924,0.3136 -8.0056,1.8424 -10.9528,4.4896 -1.1472,1.0304 -2.1664,2.3016 -2.9608,3.62 -0.1624,0.2696 -0.6328,1.3552 -0.9752,1.3552 -0.4392,0 -0.8064,-0.9584 -0.9976,-1.2752 -0.716,-1.1896 -1.6216,-2.5064 -2.6736,-3.4232 -3.168,-2.76 -6.9584,-4.3072 -11.12,-4.7232 -4.2448,-0.4248 -9.02,0.24 -12.64,2.5776 -1.3952,0.9016 -2.5296,1.96 -3.5688,3.2488 -0.1904,0.236 -0.7472,1.2256 -1.1272,1.0928 -0.3744,-0.1312 -0.264,-1.1936 -0.264,-1.4928 0,-1.1424 0.4328,-3.2184 -0.4448,-4.1192 C 200.6648,85.0496 198.96,85.36 197.92,85.36 h -8.32 c -1.0984,0 -2.5832,-0.28 -3.5032,0.456 -0.9096,0.728 -0.5768,2.4464 -0.5768,3.464 v 9.52 33.6 8.4 c 0,1.0584 -0.2936,2.5624 0.4584,3.4216 0.7192,0.8232 2.728,0.4184 3.7016,0.4184 3.5272,0 7.2096,0.3096 10.72,0.0272 1.67201,-0.1352 1.52001,-1.7376 1.52001,-2.9872 v -9.28 -17.84 -5.52 c 0,-1.188 -0.0784,-2.4352 0.2024,-3.6 0.8744,-3.6288 3.6888,-6.1272 7.3176,-6.7632 5.68,-0.9944 10.3968,3.6888 10.5,9.2632 0.16,8.624 -0.02,17.2736 -0.02,25.9 v 6.88 c 0,1.0656 -0.1896,2.3872 0.3736,3.352 0.5528,0.9456 2.632,0.568 3.5464,0.568 h 8.24 c 1.0408,0 2.5592,0.3048 3.5032,-0.212 0.876,-0.48 0.6568,-1.9368 0.6568,-2.748 v -8 -18.24 -5.68 c 0,-1.104 -0.1072,-2.2776 0.152,-3.36 0.2928,-1.224 0.6032,-2.4024 1.2288,-3.5064 1.5208,-2.6864 4.5856,-4.3976 7.6592,-4.4072 4.5744,-0.0144 7.6728,3.472 8.6088,7.6736 0.268,1.2008 0.1912,2.536 0.1912,3.76 v 5.84 18.8 6.96 c 0,0.8688 -0.2152,2.0696 0.4552,2.7592 0.7328,0.7552 2.7488,0.3608 3.7048,0.3608 3.496,0 7.1632,0.324 10.64,0.0296 2.1672,-0.184 1.52,-3.2056 1.52,-4.7496 v -15.28 -15.12 c 0,-2.3152 0.2056,-4.7368 -0.0136,-7.04 -0.5312,-5.5848 -2.4992,-10.9376 -7.1064,-14.4664 -1.9752,-1.5128 -4.1192,-2.0992 -6.4,-2.8976 -2.2376,-0.7832 -5.3304,-0.7728 -7.68,-0.5856"
       id="path480" />
    <path
       style="fill:#9b4a25;stroke:none;stroke-width:0.08;fill-opacity:1"
       d="m 154.4,84.5376 c -8.7992,-0.0976 -17.8824,1.2824 -24.1288,8.1256 -1.8168,1.9896 -2.944,4.3632 -3.6016,6.9368 -0.2016,0.788 -0.7408,2.1904 0.0544,2.7912 0.8424,0.6352 2.6552,0.5648 3.676,0.6624 1.7632,0.168 3.5248,0.4928 5.28,0.752 0.9112,0.1352 1.8184,0.1256 2.72,0.3336 0.7872,0.1824 1.6008,0.1704 2.4,0.2752 0.5936,0.0784 1.104,0.2672 1.6768,-0.0368 0.84,-0.4456 0.908,-1.804 1.4472,-2.5376 1.1432,-1.5528 3.0144,-2.572 4.876,-2.9744 3.684,-0.7968 9.136,-0.4448 11.2776,3.2216 0.6744,1.1536 0.9824,2.3512 1.1088,3.6728 0.0768,0.8072 0.3368,2.8728 -0.26,3.4888 -0.5648,0.5832 -1.7936,0.3512 -2.5264,0.3512 h -6.64 c -7.872,0 -16.916,0.3992 -22.58,6.7272 -2.1328,2.3832 -3.5696,5.388 -4.036,8.5528 -0.188,1.276 -0.104,2.6312 -0.104,3.92 0,3.3936 0.68,6.8896 2.7432,9.68 2.8168,3.8096 7.3376,5.9424 11.8968,6.7632 4.8184,0.8672 10.6192,0.7392 15.12,-1.3552 1.5888,-0.7392 3.1288,-1.6384 4.38,-2.8808 0.3328,-0.3312 1.2216,-1.6304 1.6968,-1.62 0.4928,0.0112 0.3232,0.9544 0.3232,1.2528 0,0.9728 -0.3408,3.0272 0.5704,3.7016 0.8064,0.5968 2.4064,0.2984 3.3496,0.2984 h 8.56 c 0.9872,0 2.832,0.372 3.5432,-0.4888 0.392,-0.4744 0.3768,-1.1688 0.3768,-1.7512 v -3.28 -13.52 -14.56 c 0,-3.1472 0.3688,-6.5752 -0.1856,-9.68 -0.9216,-5.164 -4.3952,-10.056 -9.0144,-12.62 -1.928,-1.0696 -3.8784,-2.0432 -6,-2.6552 -2.568,-0.74 -5.2944,-1.5168 -8,-1.5472 m -3.76,34.9256 c 2.464,-0.2912 5.1176,-0.0232 7.6,-0.0232 0.6824,0 2.144,-0.272 2.6888,0.2048 0.324,0.2848 0.2712,0.7672 0.2712,1.1552 v 2.8 c 0,1.3624 -0.136,2.6584 -0.6824,3.92 -1.484,3.428 -5.6056,5.4696 -9.1576,5.8264 -2.396,0.2408 -5.0504,0.12 -7.12,-1.2384 -3.1112,-2.0408 -3.768,-6.8032 -1.2528,-9.5944 1.9752,-2.192 4.8776,-2.7232 7.6528,-3.0504"
       id="path478" />
    <path
       style="fill:#9b4a25;stroke:none;stroke-width:0.08;fill-opacity:1"
       d="m 280.32001,64.1952 c -1.428,0.23176 -1.6,1.37528 -1.6,2.6048 v 7.68 33.28 28 6.56 c 0,0.92 -0.007,2.0016 0.96,2.4352 0.8976,0.4032 2.3872,0.1248 3.36,0.1248 h 7.6 c 1.0256,0 2.6648,0.3096 3.6,-0.1472 1.264,-0.6184 0.8,-2.7568 0.8,-3.9328 0,-0.3128 -0.0408,-1.4144 0.5536,-1.252 0.4568,0.124 0.8808,1.0016 1.2064,1.332 0.9552,0.968 1.9608,1.8688 3.12,2.588 2.9432,1.8256 6.0416,2.292 9.44,2.292 1.24,0 2.5368,0.0488 3.76,-0.1848 2.1952,-0.42 4.3176,-1.0584 6.32,-2.0624 9.7368,-4.88 13.2232,-15.6136 13.6832,-25.7528 0.1528,-3.3632 0.112,-6.6608 -0.3928,-10 -1.1784,-7.7976 -4.5712,-15.708 -11.704,-19.88 -3.8464,-2.2496 -7.9648,-3.08 -12.3864,-3.08 -1.8584,0 -3.7376,0.0272 -5.52,0.608 -2.2912,0.7464 -4.3528,1.828 -6.08,3.552 -0.3024,0.3016 -1.352,1.7376 -1.8056,1.3792 -0.3936,-0.312 -0.1944,-1.4104 -0.1944,-1.8592 V 83.2 69.52 66.24 c 0,-0.4992 0.0568,-1.11048 -0.3384,-1.4888 -0.7024,-0.6724 -1.6512,-0.5912 -2.5416,-0.5912 h -5.44 c -2.0592,0 -4.3688,-0.29448 -6.4,0.0352 m 23.76,34.628 c 4.9296,-0.6408 9.02,2.32 10.7312,6.8568 0.9424,2.4984 1.232,5.0368 1.352,7.68 0.152,3.3536 -0.002,6.4888 -0.8112,9.76 -1.0352,4.1832 -3.8352,8.072 -8.392,8.6168 -4.9672,0.5944 -8.6104,-2.3888 -10.3568,-6.8568 -0.9336,-2.3888 -1.1232,-4.9016 -1.2464,-7.44 -0.1688,-3.4744 -0.0432,-6.8512 0.8392,-10.24 1.0296,-3.956 3.4848,-7.8048 7.884,-8.3768"
       id="path476" />
    <path
       style="fill:#c48925;stroke:none;stroke-width:0.08;fill-opacity:1"
       d="m 145.76,43.154 c -2.9048,0.39552 -5.8816,0.38464 -8.8,0.87208 -6.64,1.10896 -13.172,3.14712 -19.28,5.98352 -27.689598,12.85776 -44.593598,43.6976 -40.627278,73.8304 2.65464,20.168 13.62568,38.3464 30.307278,50.148 3.7928,2.6832 7.9456,5.0448 12.24,6.7984 2.1136,0.8632 4.3648,1.8488 6.72,1.1496 5.3992,-1.6024 6.604,-8.7304 2.32,-12.1944 -0.9944,-0.804 -2.2824,-1.18 -3.44,-1.6784 -1.7336,-0.7464 -3.4792,-1.6096 -5.12,-2.5472 -5.3016,-3.0312 -10.052,-6.8176 -14.2328,-11.276 -10.414398,-11.1056 -16.132798,-26.668 -15.443998,-41.84 0.5168,-11.3816 4.6696,-22.7584 11.483198,-31.92 10.5632,-14.20224 27.2944,-22.74928 44.8336,-23.51688 6.2392,-0.27304 12.784,0.83304 18.72,2.6208 5.964,1.79608 11.6152,4.72216 16.7192,8.296 1.8488,1.2952 3.4888,3.2004 5.5208,4.19248 1.9224,0.93848 4.2872,0.8472 6.24,0.06048 3.776,-1.52096 4.7936,-6.62744 2.896,-9.89288 -0.6512,-1.12168 -1.6984,-1.84888 -2.6496,-2.68664 -1.6864,-1.48536 -3.5576,-2.89488 -5.4464,-4.11848 -9.3136,-6.0324 -19.5008,-10.07624 -30.48,-11.538 -3.1424,-0.4184 -6.2624,-0.77688 -9.44,-0.77688 -0.9952,0 -2.0528,-0.1004 -3.04,0.034"
       id="path474" />
    <path
       style="fill:#c48925;stroke:none;stroke-width:0.08;fill-opacity:1"
       d="m 146.96,8.62 c -4.9104,0.30424 -9.8472,0.5076 -14.72,1.2336 -9.9904,1.48848 -19.8872,4.58208 -29.04,8.876 -17.516798,8.2176 -32.041998,21.0672 -43.095599,36.884 -3.472,4.96808 -6.27184,10.43032 -8.8148,15.9064 -4.45104,9.5848 -6.78864,19.892 -8.47288,30.24 -0.38256,2.3512 -0.34232,4.7584 -0.504,7.12 -0.756,11.0392 0.54016,21.8072 3.02176,32.56 1.51456,6.5624 4.04824,13.1432 7.03168,19.2 5.06496,10.2824 11.386961,19.7584 19.320961,28.0808 16.82648,17.6512 40.061678,29.076 64.152878,31.7728 8.4512,0.9456 16.8256,1.024 25.28,0.01 3.3736,-0.4048 7.1352,-0.6152 10.32,-1.8616 1.572,-0.6144 3.1088,-1.5064 4.3664,-2.6448 5.8976,-5.3408 6.1088,-14.7992 0.5336,-20.4304 -1.1288,-1.14 -2.5568,-2.1536 -4.02,-2.8232 -2.0136,-0.9208 -4.5152,-1.3976 -6.72,-1.2816 -2.1832,0.1152 -4.3928,0.8456 -6.56,1.1544 -3.0088,0.4288 -6.0944,0.4936 -9.12,0.7368 -2.1312,0.1712 -4.284,-0.16 -6.4,-0.3056 -7.2888,-0.5024 -14.2904,-1.8976 -21.2,-4.2672 -6.5944,-2.2608 -12.7704,-5.6328 -18.56,-9.5328 C 84.264002,166.1128 72.390322,143.9184 70.248322,120.88 c -0.37816,-4.0672 -0.23456,-8.2728 0.14336,-12.32 0.97864,-10.4824 3.78032,-20.652 8.70736,-30 7.57936,-14.38048 19.90336,-26.61688 34.580958,-33.70648 6.4,-3.09144 13.06,-5.32808 20,-6.8 2.7344,-0.58 5.5408,-0.79632 8.32,-1.02096 3.3864,-0.27376 6.8904,-0.54016 10.32,-0.30544 3.7536,0.25696 7.6488,1.26872 11.44,0.76976 2.6688,-0.35128 5.3064,-1.8052 7.28,-3.59048 0.9536,-0.86216 1.812,-1.91472 2.4568,-3.0264 3.9624,-6.8288 1.6136,-16.08824 -5.5768,-19.7504 C 165.156,9.72168 162.0704,9.5548 159.04,9.2664 156.3144,9.00704 153.6224,8.92136 150.88,8.79688 149.5816,8.73792 148.2744,8.53856 146.96,8.62"
       id="path472" />
    <path
       style="fill:#c48925;stroke:none;stroke-width:0.08;fill-opacity:1"
       d="m 0,108.64 v 12.88 c 0.67187122,0.3528 0.42594081,1.9552 0.47283921,2.64 0.17729041,2.5888 0.0526856,5.2864 0.56234479,7.84 0.705352,3.5344 0.9963361,7.168 1.6305601,10.72 1.235072,6.9168 3.130112,13.9448 5.4839361,20.56 9.7003998,27.2608 27.0008008,52.3008 50.4103208,69.7136 16.617921,12.3608 35.554401,21.612 55.679999,26.232 15.056,3.456 30.6024,3.9736 46,4.3752 0.4696,0.0128 0.8904,0.2256 1.36,0.2384 10.7136,0.2792 21.4496,-0.1048 32.16,0.1616 0.5192,0.0136 1.0008,0.2248 1.52,0.2384 10.29041,0.256 20.55361,0.224 30.80001,1.048 12.4576,1.0024 25.3048,2.5944 37.12,6.7568 3.8864,1.3688 7.5848,3.0896 11.2,5.0816 2.68,1.476 5.1592,3.3216 8.32,3.6608 3.4024,0.364 7.032,0.1272 10.16,-1.3104 7.1304,-3.2784 11.4432,-11.212 10.0432,-18.996 -0.4728,-2.6264 -1.5544,-5.0704 -3.0504,-7.28 -1.8688,-2.7608 -4.7608,-4.492 -7.5456,-6.1736 -4.4632,-2.6944 -9.2104,-4.9464 -14.0872,-6.7512 -14.612,-5.408 -29.8216,-7.8552 -45.28,-9.5352 -0.976,-0.1056 -1.9744,-0.0392 -2.96,-0.1072 -2.8608,-0.1968 -5.76,-0.5488 -8.64,-0.7096 -2.7672,-0.1536 -5.5552,-0.0584 -8.32,-0.2472 -6.0048,-0.4104 -12.0456,-0.2472 -18.08001,-0.3968 -0.5192,-0.0136 -1.0008,-0.2248 -1.52,-0.2384 -8.7688,-0.2176 -17.5496,0.136 -26.32,-0.0816 -3.284,-0.0824 -6.5512,-0.3176 -9.84,-0.3984 -6.9112,-0.1688 -13.7128,-0.616 -20.56,-1.2672 -4.3112,-0.4104 -8.7464,-0.8304 -12.96,-1.816 -15.5968,-3.6488 -30.365598,-10.24 -43.279998,-19.9056 -5.10944,-3.824 -9.67024,-8.1608 -14.14064,-12.6856 -7.233521,-7.3216 -13.311681,-16.0304 -18.096081,-25.1264 -7.6104,-14.4688 -11.97864,-30.2536 -12.88672,-46.56 -0.02432,-0.436 -0.21392,-0.8392 -0.23344,-1.28 -0.50328,-11.392 0.92912,-22.9928 3.79832,-34 2.46112,-9.44144 6.47472,-18.23704 11.00792,-26.88 0.94128,-1.79472 2.10424,-3.49584 3.196,-5.2 4.10648,-6.41008 8.873521,-12.35408 14.161121,-17.8296 2.20072,-2.27896 4.84136,-4.21688 6.9072,-6.6044 2.81616,-3.2548 4.70016,-7.60352 4.52312,-11.966 -0.24616,-6.0652 -3.1196,-11.501344 -8.3304,-14.795856 -1.5744,-0.995432 -3.28664,-1.5028 -5.0264,-2.075804 -0.61104,-0.2012504 -1.65168,0.0787496 -2,-0.56834 -1.26056,0 -2.6676,-0.1777536 -3.912881,0.01154296 -0.3168,0.04816408 -0.5656,0.28718744 -0.88712,0.35103544 -1.41672,0.281308 -2.72016,0.4960776 -4.08,1.0356216 -3.0628,1.215216 -5.32192,3.441328 -7.6936,5.635376 -3.09952,2.867384 -6.05376,5.881224 -8.86952,9.024744 C 27.988801,27.14152 20.141121,39.5596 13.68472,52.9028 10.04744,60.42 7.4650402,68.4876 5.1709281,76.48 c -1.36968,4.772 -2.19192,9.6816 -3.048024,14.56 -0.3514401,2.0024 -0.6265201,3.98 -0.8657441,6 -0.121952,1.0296 -0.37709598,1.9896 -0.37715998,3.04 -5.6e-5,0.8552 -0.233824,1.6432 -0.31166641,2.48 -0.1236744,1.3296 -0.0700368,2.6688 -0.1611728,4 C 0.36383361,107.1928 0.66200722,108.2928 0,108.64"
       id="path377" />
  </g>
</svg>
